<svg width="25" height="33" viewBox="0 0 25 33" fill="none" xmlns="http://www.w3.org/2000/svg">
<path d="M12.5 1C15.55 1 18.475 2.22049 20.6317 4.39299C22.7885 6.56548 24 9.51201 24 12.5844C24 17.7433 16.525 27.7619 13.627 31.4495C13.4924 31.6212 13.3211 31.7598 13.1258 31.855C12.9303 31.9504 12.7162 32 12.499 32C12.2821 32 12.0678 31.9504 11.8723 31.855C11.677 31.7598 11.5056 31.6212 11.3711 31.4495C8.475 27.7599 1 17.7433 1 12.5844C1 9.51201 2.2116 6.56548 4.36827 4.39299C6.52494 2.22049 9.45001 1 12.5 1Z" fill="url(#paint0_linear_71_11116)" stroke="black" stroke-width="1.5" stroke-linecap="round" stroke-linejoin="round"/>
<path d="M7 13C7 13.7879 7.14227 14.5681 7.41866 15.2961C7.69507 16.0241 8.10018 16.6855 8.61091 17.2426C9.12164 17.7998 9.728 18.2417 10.3952 18.5433C11.0625 18.8448 11.7777 19 12.5 19C13.2223 19 13.9375 18.8448 14.6048 18.5433C15.272 18.2417 15.8783 17.7998 16.389 17.2426C16.8998 16.6855 17.305 16.0241 17.5813 15.2961C17.8577 14.5681 18 13.7879 18 13C18 12.2121 17.8577 11.4319 17.5813 10.7039C17.305 9.97594 16.8998 9.31452 16.389 8.75736C15.8783 8.2002 15.272 7.75826 14.6048 7.45672C13.9375 7.1552 13.2223 7 12.5 7C11.7777 7 11.0625 7.1552 10.3952 7.45672C9.728 7.75826 9.12164 8.2002 8.61091 8.75736C8.10018 9.31452 7.69507 9.97594 7.41866 10.7039C7.14227 11.4319 7 12.2121 7 13Z" fill="white" stroke="black" stroke-width="1.5" stroke-linecap="round" stroke-linejoin="round"/>
<defs>
<linearGradient id="paint0_linear_71_11116" x1="12.5" y1="1" x2="12.5" y2="32" gradientUnits="userSpaceOnUse">
<stop stop-color="#51B7D7"/>
<stop offset="1" stop-color="#CBF3FF"/>
</linearGradient>
</defs>
</svg>
