<svg width="47" height="74" viewBox="0 0 47 74" fill="current" xmlns="http://www.w3.org/2000/svg">
<path d="M44.875 41.7061L10.6125 71.6811C6.575 75.2186 0.250002 72.3436 0.250002 66.9749V7.02489C0.248972 5.82337 0.594299 4.64701 1.24463 3.63669C1.89496 2.62638 2.82273 1.82493 3.91683 1.32834C5.01093 0.831736 6.22499 0.661034 7.41361 0.83667C8.60223 1.01231 9.71503 1.52684 10.6188 2.31864L44.8688 32.2936C45.5401 32.8803 46.0781 33.6037 46.4467 34.4155C46.8154 35.2272 47.0061 36.1084 47.0061 36.9999C47.0061 37.8914 46.8154 38.7726 46.4467 39.5843C46.0781 40.3961 45.5401 41.1195 44.8688 41.7061H44.875Z" fill="current"/>
</svg>
