<svg width="20" height="20" viewBox="0 0 20 20" fill="none" xmlns="http://www.w3.org/2000/svg">
<path d="M6.95983 16.8676C7.66073 17.7585 8.76182 18.3327 10 18.3327C11.2382 18.3327 12.3393 17.7585 13.0402 16.8676C11.022 17.141 8.97798 17.141 6.95983 16.8676Z" fill="#A1A1A1"/>
<path d="M15.6243 7.49935V8.0861C15.6243 8.79026 15.8252 9.47866 16.2018 10.0646L17.1247 11.5003C17.9676 12.8117 17.3241 14.5943 15.858 15.009C12.0227 16.0939 7.97728 16.0939 4.14197 15.009C2.67587 14.5943 2.03235 12.8117 2.8753 11.5003L3.79816 10.0646C4.17476 9.47866 4.37573 8.79026 4.37573 8.0861V7.49935C4.37573 4.27769 6.8938 1.66602 10 1.66602C13.1062 1.66602 15.6243 4.27769 15.6243 7.49935Z" fill="#A1A1A1"/>
</svg>
