<svg width="47" height="74" viewBox="0 0 47 74" fill="current" xmlns="http://www.w3.org/2000/svg">
<path d="M2.12526 41.7061L36.3878 71.6811C40.4253 75.2186 46.7503 72.3436 46.7503 66.9749V7.02489C46.7513 5.82337 46.406 4.64701 45.7556 3.63669C45.1053 2.62638 44.1775 1.82493 43.0834 1.32834C41.9893 0.831736 40.7753 0.661034 39.5867 0.83667C38.398 1.01231 37.2852 1.52684 36.3815 2.31864L2.13151 32.2936C1.4602 32.8803 0.922164 33.6037 0.553515 34.4155C0.184867 35.2272 -0.00585938 36.1084 -0.00585938 36.9999C-0.00585938 37.8914 0.184867 38.7726 0.553515 39.5843C0.922164 40.3961 1.4602 41.1195 2.13151 41.7061H2.12526Z" fill="current"/>
</svg>
