<svg width="271" height="41" viewBox="0 0 271 41" fill="none" xmlns="http://www.w3.org/2000/svg">
<path d="M56.06 4.278L56.59 3.43H59.664L70.105 22.669L80.599 3.43H83.673L84.15 4.278L71.96 26.273V40H68.303V26.273L56.06 4.278ZM90.1543 40V3.43H113.739V6.769H93.8113V19.065H112.149V22.404H93.8113V36.661H113.739V40H90.1543ZM120.731 32.103V11.327C120.731 6.06233 123.363 3.43 128.628 3.43H141.083C146.383 3.43 149.033 6.06233 149.033 11.327V32.103C149.033 37.3677 146.383 40 141.083 40H128.628C123.363 40 120.731 37.3677 120.731 32.103ZM124.388 32.58C124.388 35.3007 125.766 36.661 128.522 36.661H141.295C144.015 36.661 145.376 35.3007 145.376 32.58V10.85C145.376 8.12933 144.015 6.769 141.295 6.769H128.522C125.766 6.769 124.388 8.12933 124.388 10.85V32.58ZM157.738 32.103V11.327C157.738 6.06233 160.37 3.43 165.635 3.43H181.853L183.92 5.073V6.769H165.529C162.773 6.769 161.395 8.12933 161.395 10.85V32.58C161.395 35.3007 162.773 36.661 165.529 36.661H181.323V22.404H171.836V19.065H184.98V40H165.635C160.37 40 157.738 37.3677 157.738 32.103ZM193.67 40V3.43H197.327V40H193.67ZM203.259 4.278L203.789 3.43H206.863L217.304 22.669L227.798 3.43H230.872L231.349 4.278L219.159 26.273V40H215.502V26.273L203.259 4.278ZM230.898 39.152L243.194 3.43H249.395L261.638 39.152L261.108 40H258.087L254.907 30.354H237.682L234.449 40H231.481L230.898 39.152ZM238.848 27.015H253.794L247.01 6.769H245.632L238.848 27.015Z" fill="black"/>
<path d="M16.5 1C20.6109 1 24.5533 2.53546 27.4601 5.2686C30.3671 8.00174 32 11.7087 32 15.5739C32 22.0641 21.925 34.6681 18.019 39.3075C17.8377 39.5234 17.6067 39.6978 17.3435 39.8176C17.08 39.9376 16.7914 40 16.4987 40C16.2063 40 15.9175 39.9376 15.654 39.8176C15.3907 39.6978 15.1598 39.5234 14.9784 39.3075C11.075 34.6657 1 22.0641 1 15.5739C1 11.7087 2.63303 8.00174 5.53985 5.2686C8.44667 2.53546 12.3891 1 16.5 1Z" fill="url(#paint0_linear_71_11154)" stroke="black" stroke-linecap="round" stroke-linejoin="round"/>
<path d="M11 19C11 20.0506 11.1423 21.0909 11.4187 22.0615C11.6951 23.0321 12.1002 23.914 12.6109 24.6569C13.1216 25.3997 13.728 25.989 14.3952 26.391C15.0625 26.7931 15.7777 27 16.5 27C17.2223 27 17.9375 26.7931 18.6048 26.391C19.272 25.989 19.8783 25.3997 20.389 24.6569C20.8998 23.914 21.305 23.0321 21.5813 22.0615C21.8577 21.0909 22 20.0506 22 19C22 17.9494 21.8577 16.9091 21.5813 15.9385C21.305 14.9679 20.8998 14.086 20.389 13.3431C19.8783 12.6003 19.272 12.011 18.6048 11.609C17.9375 11.2069 17.2223 11 16.5 11C15.7777 11 15.0625 11.2069 14.3952 11.609C13.728 12.011 13.1216 12.6003 12.6109 13.3431C12.1002 14.086 11.6951 14.9679 11.4187 15.9385C11.1423 16.9091 11 17.9494 11 19Z" fill="white" stroke="black" stroke-linecap="round" stroke-linejoin="round"/>
<defs>
<linearGradient id="paint0_linear_71_11154" x1="16.5" y1="1" x2="16.5" y2="40" gradientUnits="userSpaceOnUse">
<stop stop-color="#51B7D7"/>
<stop offset="1" stop-color="#CBF3FF"/>
</linearGradient>
</defs>
</svg>
