<svg width="251" height="222" viewBox="0 0 251 222" fill="none" xmlns="http://www.w3.org/2000/svg">
<path d="M1.08 179.22L2.1 177.6H9.48L18.48 195.18L27.48 177.6H34.86L35.88 179.22L22.8 204.36V219H14.16V204.36L1.08 179.22ZM41.8927 219V177.6H70.2127V185.4H50.5327V193.8H68.4127V201.6H50.5327V211.2H70.2127V219H41.8927ZM77.5036 208.92V187.68C77.5036 180.96 80.8636 177.6 87.5836 177.6H101.264C107.984 177.6 111.344 180.96 111.344 187.68V208.92C111.344 215.64 107.984 219 101.264 219H87.5836C80.8636 219 77.5036 215.64 77.5036 208.92ZM86.1436 209.4C86.1436 210.6 86.7436 211.2 87.9436 211.2H100.904C102.104 211.2 102.704 210.6 102.704 209.4V187.2C102.704 186 102.104 185.4 100.904 185.4H87.9436C86.7436 185.4 86.1436 186 86.1436 187.2V209.4ZM119.984 208.92V187.68C119.984 180.96 123.344 177.6 130.064 177.6H147.404L151.424 180.72V185.4H130.424C129.224 185.4 128.624 186 128.624 187.2V209.4C128.624 210.6 129.224 211.2 130.424 211.2H143.984V201.6H136.064V193.8H152.624V219H130.064C123.344 219 119.984 215.64 119.984 208.92ZM161.248 219V177.6H169.888V219H161.248ZM175.865 179.22L176.885 177.6H184.265L193.265 195.18L202.265 177.6H209.645L210.665 179.22L197.585 204.36V219H188.945V204.36L175.865 179.22ZM209.85 217.38L222.15 177.6H235.35L247.65 217.38L246.57 219H239.37L236.85 210.6H220.65L218.13 219H210.93L209.85 217.38ZM222.99 202.8H234.51L229.23 185.4H228.27L222.99 202.8Z" fill="black"/>
<path d="M163.25 61.917V114.058C163.25 114.655 163.013 115.228 162.591 115.649C162.169 116.071 161.597 116.308 161 116.308H89C88.4033 116.308 87.831 116.071 87.409 115.649C86.9871 115.228 86.75 114.655 86.75 114.058V61.917L121.305 37.878C122.413 37.1855 123.694 36.8184 125 36.8184C126.306 36.8184 127.587 37.1855 128.695 37.878L163.25 61.917Z" fill="white"/>
<path d="M128.695 37.878C127.587 37.1855 126.306 36.8184 125 36.8184C123.694 36.8184 122.413 37.1855 121.305 37.878L86.75 61.917V73.1085L121.305 49.0695C122.413 48.377 123.694 48.0099 125 48.0099C126.306 48.0099 127.587 48.377 128.695 49.0695L163.25 73.1085V61.917L128.695 37.878Z" fill="url(#paint0_linear_47_12791)"/>
<path d="M113.75 84.8086H136.25C136.25 84.8086 140.75 84.8086 140.75 89.3086V134.309C140.75 134.309 140.75 138.809 136.25 138.809H113.75C113.75 138.809 109.25 138.809 109.25 134.309V89.3086C109.25 89.3086 109.25 84.8086 113.75 84.8086Z" fill="white"/>
<path d="M109.25 93.75H140.75V129.75H109.25V93.75Z" fill="url(#paint1_linear_47_12791)"/>
<path d="M140.75 96V93.75H109.25V127.5L140.75 96Z" fill="url(#paint2_linear_47_12791)"/>
<path d="M113.75 84.8086H136.25C136.25 84.8086 140.75 84.8086 140.75 89.3086V134.309C140.75 134.309 140.75 138.809 136.25 138.809H113.75C113.75 138.809 109.25 138.809 109.25 134.309V89.3086C109.25 89.3086 109.25 84.8086 113.75 84.8086Z" stroke="#00303E" stroke-width="2" stroke-linecap="round" stroke-linejoin="round"/>
<path d="M109.25 93.8086H140.75" stroke="#00303E" stroke-width="2" stroke-linecap="round" stroke-linejoin="round"/>
<path d="M109.25 129.809H140.75" stroke="#00303E" stroke-width="2" stroke-linecap="round" stroke-linejoin="round"/>
<path d="M118.637 76.1995C120.324 74.5123 122.613 73.5645 125 73.5645C127.386 73.5645 129.675 74.5123 131.363 76.1995" stroke="#00303E" stroke-width="2" stroke-linecap="round" stroke-linejoin="round"/>
<path d="M112.274 69.8327C115.65 66.4582 120.227 64.5625 125 64.5625C129.773 64.5625 134.351 66.4582 137.726 69.8327" stroke="#00303E" stroke-width="2" stroke-linecap="round" stroke-linejoin="round"/>
<path d="M98 116.309H89C88.4033 116.309 87.831 116.072 87.409 115.65C86.9871 115.228 86.75 114.655 86.75 114.059V62.3086" stroke="#00303E" stroke-width="2" stroke-linecap="round" stroke-linejoin="round"/>
<path d="M163.25 62.3086V114.059C163.25 114.655 163.013 115.228 162.591 115.65C162.169 116.072 161.597 116.309 161 116.309H152" stroke="#00303E" stroke-width="2" stroke-linecap="round" stroke-linejoin="round"/>
<path d="M73.25 71.3085L121.306 37.878C122.413 37.1855 123.694 36.8184 125 36.8184C126.306 36.8184 127.587 37.1855 128.694 37.878L176.75 71.3085" stroke="#00303E" stroke-width="2" stroke-linecap="round" stroke-linejoin="round"/>
<g clip-path="url(#clip0_47_12791)">
<path d="M124.525 129.051C125.688 129.068 126.843 128.859 127.923 128.435C129.002 128.011 129.985 127.381 130.813 126.582C131.642 125.784 132.3 124.831 132.749 123.781C133.198 122.731 133.429 121.604 133.429 120.466C133.429 119.327 133.198 118.2 132.749 117.15C132.3 116.1 131.642 115.148 130.813 114.349C129.985 113.55 129.002 112.92 127.923 112.496C126.843 112.072 125.688 111.863 124.525 111.88C122.221 111.914 120.023 112.833 118.406 114.439C116.789 116.046 115.883 118.21 115.883 120.466C115.883 122.721 116.789 124.885 118.406 126.492C120.023 128.098 122.221 129.018 124.525 129.051Z" fill="#5ACCE6"/>
<path d="M138.583 159L141.934 145.138C142.08 144.526 141.983 143.885 141.662 143.337C141.341 142.789 140.819 142.375 140.197 142.174L128.331 138.326V125.264C128.331 124.836 128.242 124.411 128.071 124.015C127.899 123.619 127.647 123.259 127.33 122.956C127.013 122.653 126.636 122.413 126.221 122.248C125.807 122.084 125.363 122 124.914 122C124.465 122 124.021 122.084 123.606 122.248C123.192 122.413 122.815 122.653 122.498 122.956C122.181 123.259 121.929 123.619 121.757 124.015C121.585 124.411 121.497 124.836 121.497 125.264V146.361C121.497 146.361 120.067 144.581 118.614 142.878C118.275 142.476 117.847 142.152 117.361 141.929C116.875 141.706 116.343 141.589 115.803 141.588H114.663C114.198 141.589 113.742 141.705 113.338 141.927C112.935 142.148 112.6 142.467 112.365 142.85C112.13 143.234 112.004 143.669 112 144.114C111.996 144.558 112.113 144.996 112.341 145.383L120.355 159" fill="#FFECCA"/>
<path d="M138.583 159L141.934 145.138C142.08 144.526 141.983 143.885 141.662 143.337C141.341 142.789 140.819 142.375 140.197 142.174L128.331 138.326V125.264C128.331 124.836 128.242 124.411 128.071 124.015C127.899 123.619 127.647 123.259 127.33 122.956C127.013 122.653 126.636 122.413 126.221 122.248C125.807 122.084 125.363 122 124.914 122C124.465 122 124.021 122.084 123.606 122.248C123.192 122.413 122.815 122.653 122.498 122.956C122.181 123.259 121.929 123.619 121.757 124.015C121.585 124.411 121.497 124.836 121.497 125.264V146.361C121.497 146.361 120.067 144.581 118.614 142.878C118.275 142.476 117.847 142.152 117.361 141.929C116.875 141.706 116.343 141.589 115.803 141.588H114.663C114.198 141.589 113.742 141.705 113.338 141.927C112.935 142.148 112.6 142.467 112.365 142.85C112.13 143.234 112.004 143.669 112 144.114C111.996 144.558 112.113 144.996 112.341 145.383L120.355 159" stroke="#191919" stroke-width="2" stroke-linecap="round" stroke-linejoin="round"/>
</g>
<path d="M125.5 1C128.55 1 131.475 2.22049 133.632 4.39299C135.788 6.56548 137 9.51201 137 12.5844C137 17.7433 129.525 27.7619 126.627 31.4495C126.492 31.6212 126.321 31.7598 126.126 31.855C125.93 31.9504 125.716 32 125.499 32C125.282 32 125.068 31.9504 124.872 31.855C124.677 31.7598 124.506 31.6212 124.371 31.4495C121.475 27.7599 114 17.7433 114 12.5844C114 9.51201 115.212 6.56548 117.368 4.39299C119.525 2.22049 122.45 1 125.5 1Z" fill="url(#paint3_linear_47_12791)" stroke="black" stroke-width="1.5" stroke-linecap="round" stroke-linejoin="round"/>
<path d="M120 13C120 13.7879 120.142 14.5681 120.419 15.2961C120.695 16.0241 121.1 16.6855 121.611 17.2426C122.122 17.7998 122.728 18.2417 123.395 18.5433C124.062 18.8448 124.778 19 125.5 19C126.222 19 126.938 18.8448 127.605 18.5433C128.272 18.2417 128.878 17.7998 129.389 17.2426C129.9 16.6855 130.305 16.0241 130.581 15.2961C130.858 14.5681 131 13.7879 131 13C131 12.2121 130.858 11.4319 130.581 10.7039C130.305 9.97594 129.9 9.31452 129.389 8.75736C128.878 8.2002 128.272 7.75826 127.605 7.45672C126.938 7.1552 126.222 7 125.5 7C124.778 7 124.062 7.1552 123.395 7.45672C122.728 7.75826 122.122 8.2002 121.611 8.75736C121.1 9.31452 120.695 9.97594 120.419 10.7039C120.142 11.4319 120 12.2121 120 13Z" fill="white" stroke="black" stroke-width="1.5" stroke-linecap="round" stroke-linejoin="round"/>
<defs>
<linearGradient id="paint0_linear_47_12791" x1="125" y1="36.8184" x2="125" y2="73.1085" gradientUnits="userSpaceOnUse">
<stop stop-color="#CECCCC"/>
<stop offset="1" stop-color="#F9F9F9"/>
</linearGradient>
<linearGradient id="paint1_linear_47_12791" x1="125" y1="93.75" x2="125" y2="129.75" gradientUnits="userSpaceOnUse">
<stop stop-color="#9FEAFF"/>
<stop offset="1" stop-color="#DFF8FF"/>
</linearGradient>
<linearGradient id="paint2_linear_47_12791" x1="125" y1="93.75" x2="125" y2="127.5" gradientUnits="userSpaceOnUse">
<stop stop-color="#CEF6FF"/>
<stop offset="1" stop-color="white"/>
</linearGradient>
<linearGradient id="paint3_linear_47_12791" x1="125.5" y1="1" x2="125.5" y2="32" gradientUnits="userSpaceOnUse">
<stop stop-color="#51B7D7"/>
<stop offset="1" stop-color="#CBF3FF"/>
</linearGradient>
<clipPath id="clip0_47_12791">
<rect width="47" height="46" fill="white" transform="translate(102 107)"/>
</clipPath>
</defs>
</svg>
