<svg width="106" height="142" viewBox="0 0 106 142" fill="none" xmlns="http://www.w3.org/2000/svg">
<path d="M91 61.917V114.058C91 114.655 90.7629 115.228 90.341 115.649C89.919 116.071 89.3467 116.308 88.75 116.308H16.75C16.1533 116.308 15.581 116.071 15.159 115.649C14.7371 115.228 14.5 114.655 14.5 114.058V61.917L49.0555 37.878C50.1634 37.1855 51.4435 36.8184 52.75 36.8184C54.0565 36.8184 55.3366 37.1855 56.4445 37.878L91 61.917Z" fill="white"/>
<path d="M56.4445 37.878C55.3366 37.1855 54.0565 36.8184 52.75 36.8184C51.4435 36.8184 50.1634 37.1855 49.0555 37.878L14.5 61.917V73.1085L49.0555 49.0695C50.1634 48.377 51.4435 48.0099 52.75 48.0099C54.0565 48.0099 55.3366 48.377 56.4445 49.0695L91 73.1085V61.917L56.4445 37.878Z" fill="url(#paint0_linear_104_11089)"/>
<path d="M41.3214 85H64.1786C64.1786 85 68.75 85 68.75 88.1667V119.833C68.75 119.833 68.75 123 64.1786 123H41.3214C41.3214 123 36.75 123 36.75 119.833V88.1667C36.75 88.1667 36.75 85 41.3214 85Z" fill="white"/>
<path d="M36.75 85H68.75V114H36.75V85Z" fill="url(#paint1_linear_104_11089)"/>
<path d="M68.75 85.9333V84H37.75V113L68.75 85.9333Z" fill="url(#paint2_linear_104_11089)"/>
<path d="M41.4643 76H65.0357C65.0357 76 69.75 76 69.75 79.9167V119.083C69.75 119.083 69.75 123 65.0357 123H41.4643C41.4643 123 36.75 123 36.75 119.083V79.9167C36.75 79.9167 36.75 76 41.4643 76Z" stroke="#00303E" stroke-width="2" stroke-linecap="round" stroke-linejoin="round"/>
<path d="M37 84.8086H68.5" stroke="#00303E" stroke-width="2" stroke-linecap="round" stroke-linejoin="round"/>
<path d="M37.75 114H69.25" stroke="#00303E" stroke-width="2" stroke-linecap="round" stroke-linejoin="round"/>
<path d="M25.75 116.309H16.75C16.1533 116.309 15.581 116.072 15.159 115.65C14.7371 115.228 14.5 114.655 14.5 114.059V62.3086" stroke="#00303E" stroke-width="2" stroke-linecap="round" stroke-linejoin="round"/>
<path d="M91 62.3086V114.059C91 114.655 90.7629 115.228 90.341 115.65C89.919 116.072 89.3467 116.309 88.75 116.309H79.75" stroke="#00303E" stroke-width="2" stroke-linecap="round" stroke-linejoin="round"/>
<path d="M1 71.3085L49.0555 37.878C50.1634 37.1855 51.4435 36.8184 52.75 36.8184C54.0565 36.8184 55.3366 37.1855 56.4445 37.878L104.5 71.3085" stroke="#00303E" stroke-width="2" stroke-linecap="round" stroke-linejoin="round"/>
<path d="M52.25 1C55.3 1 58.225 2.22049 60.3817 4.39299C62.5385 6.56548 63.75 9.51201 63.75 12.5844C63.75 17.7433 56.275 27.7619 53.377 31.4495C53.2424 31.6212 53.0711 31.7598 52.8758 31.855C52.6803 31.9504 52.4662 32 52.249 32C52.0321 32 51.8178 31.9504 51.6223 31.855C51.427 31.7598 51.2556 31.6212 51.1211 31.4495C48.225 27.7599 40.75 17.7433 40.75 12.5844C40.75 9.51201 41.9616 6.56548 44.1183 4.39299C46.2749 2.22049 49.2 1 52.25 1Z" fill="url(#paint3_linear_104_11089)" stroke="black" stroke-width="1.5" stroke-linecap="round" stroke-linejoin="round"/>
<path d="M46.75 13C46.75 13.7879 46.8923 14.5681 47.1687 15.2961C47.4451 16.0241 47.8502 16.6855 48.3609 17.2426C48.8716 17.7998 49.478 18.2417 50.1452 18.5433C50.8125 18.8448 51.5277 19 52.25 19C52.9723 19 53.6875 18.8448 54.3548 18.5433C55.022 18.2417 55.6283 17.7998 56.139 17.2426C56.6498 16.6855 57.055 16.0241 57.3313 15.2961C57.6077 14.5681 57.75 13.7879 57.75 13C57.75 12.2121 57.6077 11.4319 57.3313 10.7039C57.055 9.97594 56.6498 9.31452 56.139 8.75736C55.6283 8.2002 55.022 7.75826 54.3548 7.45672C53.6875 7.1552 52.9723 7 52.25 7C51.5277 7 50.8125 7.1552 50.1452 7.45672C49.478 7.75826 48.8716 8.2002 48.3609 8.75736C47.8502 9.31452 47.4451 9.97594 47.1687 10.7039C46.8923 11.4319 46.75 12.2121 46.75 13Z" fill="white" stroke="black" stroke-width="1.5" stroke-linecap="round" stroke-linejoin="round"/>
<path d="M66.3334 141L69.6839 127.138C69.8296 126.526 69.7326 125.885 69.4118 125.337C69.091 124.789 68.569 124.375 67.9469 124.174L56.0807 120.326V107.264C56.0807 106.836 55.9923 106.411 55.8206 106.015C55.6489 105.619 55.3972 105.259 55.0799 104.956C54.7627 104.653 54.386 104.413 53.9715 104.248C53.5569 104.084 53.1126 104 52.6639 104C52.2152 104 51.7709 104.084 51.3563 104.248C50.9418 104.413 50.5651 104.653 50.2478 104.956C49.9306 105.259 49.6789 105.619 49.5072 106.015C49.3355 106.411 49.2471 106.836 49.2471 107.264V128.361C49.2471 128.361 47.8167 126.581 46.3635 124.878C46.025 124.476 45.5971 124.152 45.1109 123.929C44.6247 123.706 44.0926 123.589 43.5532 123.588H42.4135C41.9484 123.589 41.4916 123.705 41.0884 123.927C40.6852 124.148 40.3496 124.467 40.1148 124.85C39.8801 125.234 39.7544 125.669 39.7501 126.114C39.7459 126.558 39.8632 126.996 40.0906 127.383L48.1051 141" fill="#FFECCA"/>
<path d="M66.3334 141L69.6839 127.138C69.8296 126.526 69.7326 125.885 69.4118 125.337C69.091 124.789 68.569 124.375 67.9469 124.174L56.0807 120.326V107.264C56.0807 106.836 55.9923 106.411 55.8206 106.015C55.6489 105.619 55.3972 105.259 55.0799 104.956C54.7627 104.653 54.386 104.413 53.9715 104.248C53.5569 104.084 53.1126 104 52.6639 104C52.2152 104 51.7709 104.084 51.3563 104.248C50.9418 104.413 50.5651 104.653 50.2478 104.956C49.9306 105.259 49.6789 105.619 49.5072 106.015C49.3355 106.411 49.2471 106.836 49.2471 107.264V128.361C49.2471 128.361 47.8167 126.581 46.3635 124.878C46.025 124.476 45.5971 124.152 45.1109 123.929C44.6247 123.706 44.0925 123.589 43.5532 123.588H42.4135C41.9484 123.589 41.4916 123.705 41.0884 123.927C40.6852 124.148 40.3496 124.467 40.1148 124.85C39.8801 125.234 39.7544 125.669 39.7501 126.114C39.7459 126.558 39.8632 126.996 40.0906 127.383L48.1051 141" stroke="#191919" stroke-width="2" stroke-linecap="round" stroke-linejoin="round"/>
<path d="M24.2588 70.2588C24.6568 69.8598 25.1297 69.5432 25.6502 69.3272C26.1708 69.1112 26.7288 69 27.2924 69C27.856 69 28.4141 69.1112 28.9347 69.3272C29.4552 69.5432 29.928 69.8598 30.3261 70.2588L53.0011 92.9424L75.6762 70.2588C76.0746 69.8604 76.5475 69.5444 77.068 69.3288C77.5885 69.1132 78.1464 69.0022 78.7098 69.0022C79.2732 69.0022 79.8311 69.1132 80.3516 69.3288C80.8721 69.5444 81.3451 69.8604 81.7434 70.2588C82.1418 70.6572 82.4578 71.1301 82.6734 71.6507C82.889 72.1712 83 72.729 83 73.2924C83 73.8558 82.889 74.4137 82.6734 74.9342C82.4578 75.4547 82.1418 75.9277 81.7434 76.3261L59.0598 99.0011L81.7434 121.676C82.1418 122.075 82.4578 122.548 82.6734 123.068C82.889 123.589 83 124.146 83 124.71C83 125.273 82.889 125.831 82.6734 126.352C82.4578 126.872 82.1418 127.345 81.7434 127.743C81.3451 128.142 80.8721 128.458 80.3516 128.673C79.8311 128.889 79.2732 129 78.7098 129C78.1464 129 77.5885 128.889 77.068 128.673C76.5475 128.458 76.0746 128.142 75.6762 127.743L53.0011 105.06L30.3261 127.743C29.9277 128.142 29.4547 128.458 28.9342 128.673C28.4137 128.889 27.8558 129 27.2924 129C26.729 129 26.1712 128.889 25.6507 128.673C25.1301 128.458 24.6572 128.142 24.2588 127.743C23.8604 127.345 23.5444 126.872 23.3288 126.352C23.1132 125.831 23.0022 125.273 23.0022 124.71C23.0022 124.146 23.1132 123.589 23.3288 123.068C23.5444 122.548 23.8604 122.075 24.2588 121.676L46.9424 99.0011L24.2588 76.3261C23.8598 75.928 23.5432 75.4552 23.3272 74.9347C23.1112 74.4141 23 73.856 23 73.2924C23 72.7288 23.1112 72.1708 23.3272 71.6502C23.5432 71.1297 23.8598 70.6568 24.2588 70.2588Z" fill="#E45252"/>
<path d="M49 70C50.1936 68.0791 51.8123 67 53.5 67C55.1877 67 56.8064 68.0791 58 70" stroke="#00303E" stroke-width="2" stroke-linecap="round" stroke-linejoin="round"/>
<path d="M44 65C46.5198 61.7985 49.937 60 53.5 60C57.063 60 60.4802 61.7985 63 65" stroke="#00303E" stroke-width="2" stroke-linecap="round" stroke-linejoin="round"/>
<defs>
<linearGradient id="paint0_linear_104_11089" x1="52.75" y1="36.8184" x2="52.75" y2="73.1085" gradientUnits="userSpaceOnUse">
<stop stop-color="#CECCCC"/>
<stop offset="1" stop-color="#F9F9F9"/>
</linearGradient>
<linearGradient id="paint1_linear_104_11089" x1="52.75" y1="85" x2="52.75" y2="114" gradientUnits="userSpaceOnUse">
<stop stop-color="#C0C0C0"/>
<stop offset="1" stop-color="white"/>
</linearGradient>
<linearGradient id="paint2_linear_104_11089" x1="53.25" y1="84" x2="53.25" y2="113" gradientUnits="userSpaceOnUse">
<stop stop-color="#A0A0A0"/>
<stop offset="1" stop-color="white"/>
</linearGradient>
<linearGradient id="paint3_linear_104_11089" x1="52.25" y1="1" x2="52.25" y2="32" gradientUnits="userSpaceOnUse">
<stop stop-color="#D75151"/>
<stop offset="1" stop-color="#FFD4CB"/>
</linearGradient>
</defs>
</svg>
