<svg width="106" height="142" viewBox="0 0 106 142" fill="none" xmlns="http://www.w3.org/2000/svg">
<path d="M91.25 61.917V114.058C91.25 114.655 91.0129 115.228 90.591 115.649C90.169 116.071 89.5967 116.308 89 116.308H17C16.4033 116.308 15.831 116.071 15.409 115.649C14.9871 115.228 14.75 114.655 14.75 114.058V61.917L49.3055 37.878C50.4134 37.1855 51.6935 36.8184 53 36.8184C54.3065 36.8184 55.5866 37.1855 56.6945 37.878L91.25 61.917Z" fill="white"/>
<path d="M56.6945 37.878C55.5866 37.1855 54.3065 36.8184 53 36.8184C51.6935 36.8184 50.4134 37.1855 49.3055 37.878L14.75 61.917V73.1085L49.3055 49.0695C50.4134 48.377 51.6935 48.0099 53 48.0099C54.3065 48.0099 55.5866 48.377 56.6945 49.0695L91.25 73.1085V61.917L56.6945 37.878Z" fill="url(#paint0_linear_71_11113)"/>
<path d="M41.5714 85H64.4286C64.4286 85 69 85 69 88.1667V119.833C69 119.833 69 123 64.4286 123H41.5714C41.5714 123 37 123 37 119.833V88.1667C37 88.1667 37 85 41.5714 85Z" fill="white"/>
<path d="M37 85H69V114H37V85Z" fill="url(#paint1_linear_71_11113)"/>
<path d="M69 85.9333V84H38V113L69 85.9333Z" fill="url(#paint2_linear_71_11113)"/>
<path d="M41.7143 76H65.2857C65.2857 76 70 76 70 79.9167V119.083C70 119.083 70 123 65.2857 123H41.7143C41.7143 123 37 123 37 119.083V79.9167C37 79.9167 37 76 41.7143 76Z" stroke="#00303E" stroke-width="2" stroke-linecap="round" stroke-linejoin="round"/>
<path d="M37.25 84.8086H68.75" stroke="#00303E" stroke-width="2" stroke-linecap="round" stroke-linejoin="round"/>
<path d="M38 114H69.5" stroke="#00303E" stroke-width="2" stroke-linecap="round" stroke-linejoin="round"/>
<path d="M46.3623 70.637C48.0501 68.9498 50.3388 68.002 52.7253 68.002C55.1118 68.002 57.4006 68.9498 59.0883 70.637" stroke="#00303E" stroke-width="2" stroke-linecap="round" stroke-linejoin="round"/>
<path d="M40 64.2702C43.3755 60.8957 47.953 59 52.726 59C57.499 59 62.0765 60.8957 65.452 64.2702" stroke="#00303E" stroke-width="2" stroke-linecap="round" stroke-linejoin="round"/>
<path d="M26 116.309H17C16.4033 116.309 15.831 116.072 15.409 115.65C14.9871 115.228 14.75 114.655 14.75 114.059V62.3086" stroke="#00303E" stroke-width="2" stroke-linecap="round" stroke-linejoin="round"/>
<path d="M91.25 62.3086V114.059C91.25 114.655 91.0129 115.228 90.591 115.65C90.169 116.072 89.5967 116.309 89 116.309H80" stroke="#00303E" stroke-width="2" stroke-linecap="round" stroke-linejoin="round"/>
<path d="M1.25 71.3085L49.3055 37.878C50.4134 37.1855 51.6935 36.8184 53 36.8184C54.3065 36.8184 55.5866 37.1855 56.6945 37.878L104.75 71.3085" stroke="#00303E" stroke-width="2" stroke-linecap="round" stroke-linejoin="round"/>
<path d="M52.5 1C55.55 1 58.475 2.22049 60.6317 4.39299C62.7885 6.56548 64 9.51201 64 12.5844C64 17.7433 56.525 27.7619 53.627 31.4495C53.4924 31.6212 53.3211 31.7598 53.1258 31.855C52.9303 31.9504 52.7162 32 52.499 32C52.2821 32 52.0678 31.9504 51.8723 31.855C51.677 31.7598 51.5056 31.6212 51.3711 31.4495C48.475 27.7599 41 17.7433 41 12.5844C41 9.51201 42.2116 6.56548 44.3683 4.39299C46.5249 2.22049 49.45 1 52.5 1Z" fill="url(#paint3_linear_71_11113)" stroke="black" stroke-width="1.5" stroke-linecap="round" stroke-linejoin="round"/>
<path d="M47 13C47 13.7879 47.1423 14.5681 47.4187 15.2961C47.6951 16.0241 48.1002 16.6855 48.6109 17.2426C49.1216 17.7998 49.728 18.2417 50.3952 18.5433C51.0625 18.8448 51.7777 19 52.5 19C53.2223 19 53.9375 18.8448 54.6048 18.5433C55.272 18.2417 55.8783 17.7998 56.389 17.2426C56.8998 16.6855 57.305 16.0241 57.5813 15.2961C57.8577 14.5681 58 13.7879 58 13C58 12.2121 57.8577 11.4319 57.5813 10.7039C57.305 9.97594 56.8998 9.31452 56.389 8.75736C55.8783 8.2002 55.272 7.75826 54.6048 7.45672C53.9375 7.1552 53.2223 7 52.5 7C51.7777 7 51.0625 7.1552 50.3952 7.45672C49.728 7.75826 49.1216 8.2002 48.6109 8.75736C48.1002 9.31452 47.6951 9.97594 47.4187 10.7039C47.1423 11.4319 47 12.2121 47 13Z" fill="white" stroke="black" stroke-width="1.5" stroke-linecap="round" stroke-linejoin="round"/>
<path d="M52.6423 110.172C53.8053 110.189 54.9602 109.98 56.0397 109.556C57.1192 109.132 58.1019 108.502 58.9305 107.704C59.7591 106.905 60.4171 105.952 60.8662 104.902C61.3154 103.852 61.5467 102.725 61.5467 101.587C61.5467 100.448 61.3154 99.3212 60.8662 98.2711C60.4171 97.221 59.7591 96.2687 58.9305 95.4698C58.1019 94.6708 57.1192 94.0411 56.0397 93.6173C54.9602 93.1935 53.8053 92.984 52.6423 93.001C50.3384 93.0346 48.1405 93.954 46.5235 95.5605C44.9064 97.167 44 99.3316 44 101.587C44 103.842 44.9064 106.006 46.5235 107.613C48.1405 109.219 50.3384 110.139 52.6423 110.172Z" fill="#5ACCE6"/>
<path d="M66.5834 141L69.9339 127.138C70.0796 126.526 69.9826 125.885 69.6618 125.337C69.341 124.789 68.819 124.375 68.1969 124.174L56.3307 120.326V107.264C56.3307 106.836 56.2423 106.411 56.0706 106.015C55.8989 105.619 55.6472 105.259 55.3299 104.956C55.0127 104.653 54.636 104.413 54.2215 104.248C53.8069 104.084 53.3626 104 52.9139 104C52.4652 104 52.0209 104.084 51.6063 104.248C51.1918 104.413 50.8151 104.653 50.4978 104.956C50.1806 105.259 49.9289 105.619 49.7572 106.015C49.5855 106.411 49.4971 106.836 49.4971 107.264V128.361C49.4971 128.361 48.0667 126.581 46.6135 124.878C46.275 124.476 45.8471 124.152 45.3609 123.929C44.8747 123.706 44.3426 123.589 43.8032 123.588H42.6635C42.1984 123.589 41.7416 123.705 41.3384 123.927C40.9352 124.148 40.5996 124.467 40.3648 124.85C40.1301 125.234 40.0044 125.669 40.0001 126.114C39.9959 126.558 40.1132 126.996 40.3406 127.383L48.3551 141" fill="#FFECCA"/>
<path d="M66.5834 141L69.9339 127.138C70.0796 126.526 69.9826 125.885 69.6618 125.337C69.341 124.789 68.819 124.375 68.1969 124.174L56.3307 120.326V107.264C56.3307 106.836 56.2423 106.411 56.0706 106.015C55.8989 105.619 55.6472 105.259 55.3299 104.956C55.0127 104.653 54.636 104.413 54.2215 104.248C53.8069 104.084 53.3626 104 52.9139 104C52.4652 104 52.0209 104.084 51.6063 104.248C51.1918 104.413 50.8151 104.653 50.4978 104.956C50.1806 105.259 49.9289 105.619 49.7572 106.015C49.5855 106.411 49.4971 106.836 49.4971 107.264V128.361C49.4971 128.361 48.0667 126.581 46.6135 124.878C46.275 124.476 45.8471 124.152 45.3609 123.929C44.8747 123.706 44.3425 123.589 43.8032 123.588H42.6635C42.1984 123.589 41.7416 123.705 41.3384 123.927C40.9352 124.148 40.5996 124.467 40.3648 124.85C40.1301 125.234 40.0044 125.669 40.0001 126.114C39.9959 126.558 40.1132 126.996 40.3406 127.383L48.3551 141" stroke="#191919" stroke-width="2" stroke-linecap="round" stroke-linejoin="round"/>
<defs>
<linearGradient id="paint0_linear_71_11113" x1="53" y1="36.8184" x2="53" y2="73.1085" gradientUnits="userSpaceOnUse">
<stop stop-color="#CECCCC"/>
<stop offset="1" stop-color="#F9F9F9"/>
</linearGradient>
<linearGradient id="paint1_linear_71_11113" x1="53" y1="85" x2="53" y2="114" gradientUnits="userSpaceOnUse">
<stop stop-color="#9FEAFF"/>
<stop offset="1" stop-color="#DFF8FF"/>
</linearGradient>
<linearGradient id="paint2_linear_71_11113" x1="53.5" y1="84" x2="53.5" y2="113" gradientUnits="userSpaceOnUse">
<stop stop-color="#CEF6FF"/>
<stop offset="1" stop-color="white"/>
</linearGradient>
<linearGradient id="paint3_linear_71_11113" x1="52.5" y1="1" x2="52.5" y2="32" gradientUnits="userSpaceOnUse">
<stop stop-color="#51B7D7"/>
<stop offset="1" stop-color="#CBF3FF"/>
</linearGradient>
</defs>
</svg>
