<svg width="317" height="68" viewBox="0 0 317 68" fill="none" xmlns="http://www.w3.org/2000/svg">
<path d="M17 58H31" stroke="#00303E" stroke-linecap="round" stroke-linejoin="round"/>
<path d="M41 29.5202V52.6942C41 52.9594 40.8946 53.2137 40.7071 53.4013C40.5196 53.5888 40.2652 53.6942 40 53.6942H8C7.73478 53.6942 7.48043 53.5888 7.29289 53.4013C7.10536 53.2137 7 52.9594 7 52.6942V29.5202L22.358 18.8362C22.8504 18.5284 23.4193 18.3652 24 18.3652C24.5807 18.3652 25.1496 18.5284 25.642 18.8362L41 29.5202Z" fill="white"/>
<path d="M25.642 18.8362C25.1496 18.5284 24.5807 18.3652 24 18.3652C23.4193 18.3652 22.8504 18.5284 22.358 18.8362L7 29.5202V34.4942L22.358 23.8102C22.8504 23.5024 23.4193 23.3392 24 23.3392C24.5807 23.3392 25.1496 23.5024 25.642 23.8102L41 34.4942V29.5202L25.642 18.8362Z" fill="url(#paint0_linear_53_12938)"/>
<path d="M19 39.6934H29C29 39.6934 31 39.6934 31 41.6934V61.6934C31 61.6934 31 63.6934 29 63.6934H19C19 63.6934 17 63.6934 17 61.6934V41.6934C17 41.6934 17 39.6934 19 39.6934Z" fill="white"/>
<path d="M17 44H31V58H17V44Z" fill="url(#paint1_linear_53_12938)"/>
<path d="M30.6777 44H17.1777L17.5 57.5L30.6777 44Z" fill="url(#paint2_linear_53_12938)"/>
<path d="M19 40H29C29 40 31 40 31 41.8333V60.1667C31 60.1667 31 62 29 62H19C19 62 17 62 17 60.1667V41.8333C17 41.8333 17 40 19 40Z" stroke="#00303E" stroke-linecap="round" stroke-linejoin="round"/>
<path d="M17 43.6934H31" stroke="#00303E" stroke-linecap="round" stroke-linejoin="round"/>
<path d="M21.1719 35.8684C21.922 35.1185 22.9392 34.6973 23.9999 34.6973C25.0605 34.6973 26.0778 35.1185 26.8279 35.8684" stroke="#00303E" stroke-linecap="round" stroke-linejoin="round"/>
<path d="M18.3438 33.0376C19.844 31.5378 21.8784 30.6953 23.9998 30.6953C26.1211 30.6953 28.1555 31.5378 29.6558 33.0376" stroke="#00303E" stroke-linecap="round" stroke-linejoin="round"/>
<path d="M12 53.6934H8C7.73478 53.6934 7.48043 53.588 7.29289 53.4005C7.10536 53.2129 7 52.9586 7 52.6934V29.6934" stroke="#00303E" stroke-linecap="round" stroke-linejoin="round"/>
<path d="M41 29.6934V52.6934C41 52.9586 40.8946 53.2129 40.7071 53.4005C40.5196 53.588 40.2652 53.6934 40 53.6934H36" stroke="#00303E" stroke-linecap="round" stroke-linejoin="round"/>
<path d="M1 33.6942L22.358 18.8362C22.8504 18.5284 23.4193 18.3652 24 18.3652C24.5807 18.3652 25.1496 18.5284 25.642 18.8362L47 33.6942" stroke="#00303E" stroke-linecap="round" stroke-linejoin="round"/>
<g clip-path="url(#clip0_53_12938)">
<path d="M24.1529 56.505C24.623 56.5121 25.0899 56.4255 25.5263 56.2505C25.9627 56.0754 26.3599 55.8153 26.6949 55.4853C27.0299 55.1553 27.2959 54.762 27.4774 54.3283C27.659 53.8945 27.7525 53.429 27.7525 52.9588C27.7525 52.4886 27.659 52.023 27.4774 51.5893C27.2959 51.1555 27.0299 50.7622 26.6949 50.4322C26.3599 50.1022 25.9627 49.8421 25.5263 49.6671C25.0899 49.492 24.623 49.4055 24.1529 49.4125C23.2215 49.4264 22.333 49.8062 21.6793 50.4697C21.0256 51.1332 20.6592 52.0273 20.6592 52.9588C20.6592 53.8902 21.0256 54.7843 21.6793 55.4478C22.333 56.1114 23.2215 56.4911 24.1529 56.505Z" fill="#5ACCE6"/>
<path d="M29.7465 68.2826L31.1009 62.5572C31.1598 62.3044 31.1206 62.0393 30.9909 61.8131C30.8612 61.587 30.6502 61.4157 30.3987 61.3326L25.6018 59.7432V54.3483C25.6018 54.1712 25.566 53.9959 25.4966 53.8323C25.4272 53.6687 25.3255 53.5201 25.1972 53.3949C25.0689 53.2697 24.9167 53.1704 24.7491 53.1026C24.5815 53.0349 24.4019 53 24.2205 53C24.0391 53 23.8595 53.0349 23.6919 53.1026C23.5243 53.1704 23.3721 53.2697 23.2438 53.3949C23.1155 53.5201 23.0138 53.6687 22.9444 53.8323C22.875 53.9959 22.8392 54.1712 22.8392 54.3483V63.062C22.8392 63.062 22.261 62.3269 21.6735 61.6234C21.5367 61.4577 21.3637 61.3238 21.1672 61.2317C20.9706 61.1395 20.7555 61.0913 20.5374 61.0906H20.0767C19.8887 61.0909 19.704 61.1392 19.5411 61.2307C19.3781 61.3222 19.2424 61.4536 19.1475 61.6121C19.0526 61.7705 19.0018 61.9504 19 62.1339C18.9983 62.3174 19.0458 62.4982 19.1377 62.6583L22.3776 68.2826" fill="#FFECCA"/>
<path d="M29.7465 68.2826L31.1009 62.5572C31.1598 62.3044 31.1206 62.0393 30.9909 61.8131C30.8612 61.587 30.6502 61.4157 30.3987 61.3326L25.6018 59.7432V54.3483C25.6018 54.1712 25.566 53.9959 25.4966 53.8323C25.4272 53.6687 25.3255 53.5201 25.1972 53.3949C25.0689 53.2697 24.9167 53.1704 24.7491 53.1026C24.5815 53.0349 24.4019 53 24.2205 53C24.0391 53 23.8595 53.0349 23.6919 53.1026C23.5243 53.1704 23.3721 53.2697 23.2438 53.3949C23.1155 53.5201 23.0138 53.6687 22.9444 53.8323C22.875 53.9959 22.8392 54.1712 22.8392 54.3483V63.062C22.8392 63.062 22.261 62.3269 21.6735 61.6234C21.5367 61.4577 21.3637 61.3238 21.1672 61.2317C20.9706 61.1395 20.7555 61.0913 20.5374 61.0906H20.0767C19.8887 61.0909 19.704 61.1392 19.5411 61.2307C19.3781 61.3222 19.2424 61.4536 19.1475 61.6121C19.0526 61.7705 19.0018 61.9504 19 62.1339C18.9983 62.3174 19.0458 62.4982 19.1377 62.6583L22.3776 68.2826" stroke="#191919" stroke-linecap="round" stroke-linejoin="round"/>
</g>
<path d="M67.14 16.86L67.92 15.6H73.08L83.7 35.58L94.32 15.6H99.54L100.26 16.86L86.76 41.88V57H80.64V41.88L67.14 16.86ZM106.671 57V15.6H134.031V21.12H112.731V32.64H132.231V38.16H112.731V51.48H134.031V57H106.671ZM141.696 47.52V25.08C141.696 18.76 144.836 15.6 151.116 15.6H165.036C171.316 15.6 174.456 18.76 174.456 25.08V47.52C174.456 53.84 171.316 57 165.036 57H151.116C144.836 57 141.696 53.84 141.696 47.52ZM147.756 48.12C147.756 50.36 148.896 51.48 151.176 51.48H164.976C167.256 51.48 168.396 50.36 168.396 48.12V24.48C168.396 22.24 167.256 21.12 164.976 21.12H151.176C148.896 21.12 147.756 22.24 147.756 24.48V48.12ZM183.825 47.52V25.08C183.825 18.76 186.965 15.6 193.245 15.6H211.125L214.185 18V21.12H193.305C191.025 21.12 189.885 22.24 189.885 24.48V48.12C189.885 50.36 191.025 51.48 193.305 51.48H209.325V38.16H199.785V32.64H215.385V57H193.245C186.965 57 183.825 53.84 183.825 47.52ZM224.737 57V15.6H230.797V57H224.737ZM237.238 16.86L238.018 15.6H243.178L253.798 35.58L264.418 15.6H269.638L270.358 16.86L256.858 41.88V57H250.738V41.88L237.238 16.86ZM269.64 55.74L282.9 15.6H292.56L305.76 55.74L304.98 57H299.88L296.76 47.16H278.7L275.52 57H270.48L269.64 55.74ZM280.44 41.64H295.02L288.36 21.12H287.1L280.44 41.64Z" fill="black"/>
<path d="M24 1C25.5913 1 27.1174 1.59056 28.2426 2.64177C29.3679 3.69298 30 5.11871 30 6.60535C30 9.10159 26.1 13.9493 24.588 15.7337C24.5178 15.8167 24.4284 15.8838 24.3265 15.9298C24.2245 15.976 24.1128 16 23.9995 16C23.8863 16 23.7745 15.976 23.6725 15.9298C23.5706 15.8838 23.4812 15.8167 23.411 15.7337C21.9 13.9483 18 9.10159 18 6.60535C18 5.11871 18.6321 3.69298 19.7574 2.64177C20.8826 1.59056 22.4087 1 24 1Z" fill="url(#paint3_linear_53_12938)" stroke="black" stroke-linecap="round" stroke-linejoin="round"/>
<path d="M22 8C22 8.39397 22.0517 8.78407 22.1522 9.14805C22.2528 9.51203 22.4001 9.84274 22.5858 10.1213C22.7715 10.3999 22.992 10.6209 23.2346 10.7716C23.4773 10.9224 23.7373 11 24 11C24.2627 11 24.5227 10.9224 24.7654 10.7716C25.008 10.6209 25.2285 10.3999 25.4142 10.1213C25.5999 9.84274 25.7473 9.51203 25.8477 9.14805C25.9483 8.78407 26 8.39397 26 8C26 7.60603 25.9483 7.21593 25.8477 6.85195C25.7473 6.48797 25.5999 6.15726 25.4142 5.87868C25.2285 5.6001 25.008 5.37913 24.7654 5.22836C24.5227 5.0776 24.2627 5 24 5C23.7373 5 23.4773 5.0776 23.2346 5.22836C22.992 5.37913 22.7715 5.6001 22.5858 5.87868C22.4001 6.15726 22.2528 6.48797 22.1522 6.85195C22.0517 7.21593 22 7.60603 22 8Z" fill="white" stroke="black" stroke-linecap="round" stroke-linejoin="round"/>
<defs>
<linearGradient id="paint0_linear_53_12938" x1="24" y1="18.3652" x2="24" y2="34.4942" gradientUnits="userSpaceOnUse">
<stop stop-color="#CECCCC"/>
<stop offset="1" stop-color="#F9F9F9"/>
</linearGradient>
<linearGradient id="paint1_linear_53_12938" x1="24" y1="44" x2="24" y2="58" gradientUnits="userSpaceOnUse">
<stop stop-color="#9FEAFF"/>
<stop offset="1" stop-color="#DFF8FF"/>
</linearGradient>
<linearGradient id="paint2_linear_53_12938" x1="24.5" y1="44.1568" x2="24.5" y2="58.1568" gradientUnits="userSpaceOnUse">
<stop stop-color="#CEF6FF"/>
<stop offset="1" stop-color="white"/>
</linearGradient>
<linearGradient id="paint3_linear_53_12938" x1="24" y1="1" x2="24" y2="16" gradientUnits="userSpaceOnUse">
<stop stop-color="#51B7D7"/>
<stop offset="1" stop-color="#CBF3FF"/>
</linearGradient>
<clipPath id="clip0_53_12938">
<rect width="19" height="19" fill="white" transform="translate(15 49)"/>
</clipPath>
</defs>
</svg>
