<svg width="251" height="187" viewBox="0 0 251 187" fill="none" xmlns="http://www.w3.org/2000/svg">
<path d="M1.08 144.22L2.1 142.6H9.48L18.48 160.18L27.48 142.6H34.86L35.88 144.22L22.8 169.36V184H14.16V169.36L1.08 144.22ZM41.8927 184V142.6H70.2127V150.4H50.5327V158.8H68.4127V166.6H50.5327V176.2H70.2127V184H41.8927ZM77.5036 173.92V152.68C77.5036 145.96 80.8636 142.6 87.5836 142.6H101.264C107.984 142.6 111.344 145.96 111.344 152.68V173.92C111.344 180.64 107.984 184 101.264 184H87.5836C80.8636 184 77.5036 180.64 77.5036 173.92ZM86.1436 174.4C86.1436 175.6 86.7436 176.2 87.9436 176.2H100.904C102.104 176.2 102.704 175.6 102.704 174.4V152.2C102.704 151 102.104 150.4 100.904 150.4H87.9436C86.7436 150.4 86.1436 151 86.1436 152.2V174.4ZM119.984 173.92V152.68C119.984 145.96 123.344 142.6 130.064 142.6H147.404L151.424 145.72V150.4H130.424C129.224 150.4 128.624 151 128.624 152.2V174.4C128.624 175.6 129.224 176.2 130.424 176.2H143.984V166.6H136.064V158.8H152.624V184H130.064C123.344 184 119.984 180.64 119.984 173.92ZM161.248 184V142.6H169.888V184H161.248ZM175.865 144.22L176.885 142.6H184.265L193.265 160.18L202.265 142.6H209.645L210.665 144.22L197.585 169.36V184H188.945V169.36L175.865 144.22ZM209.85 182.38L222.15 142.6H235.35L247.65 182.38L246.57 184H239.37L236.85 175.6H220.65L218.13 184H210.93L209.85 182.38ZM222.99 167.8H234.51L229.23 150.4H228.27L222.99 167.8Z" fill="black"/>
<path d="M133.234 9.37061L125.387 16.5251L117.541 9.35011C98.1837 -9.73539 69.6016 7.32573 69.0122 26.77C68.2435 52.0977 103.903 83.801 125.387 98.52C146.871 83.801 182.531 52.0926 181.762 26.77C181.173 7.32573 152.591 -9.73539 133.234 9.37061Z" fill="url(#paint0_linear_5_12129)"/>
<path d="M96.923 75.0688L167.089 4.89729C161.769 1.71465 155.528 0.424655 149.382 1.23691C143.236 2.04916 137.545 4.91593 133.234 9.37142L125.387 16.5259L117.541 9.35092C98.1838 -9.73458 69.6017 7.32655 69.0123 26.7708C68.5408 42.2688 81.7069 60.1499 96.923 75.0688Z" fill="url(#paint1_linear_5_12129)"/>
<path d="M133.234 9.37061L125.387 16.5251L117.541 9.35011C98.1837 -9.73539 69.6016 7.32573 69.0122 26.77C68.2435 52.0977 103.903 83.801 125.387 98.52C146.871 83.801 182.531 52.0926 181.762 26.77C181.173 7.32573 152.591 -9.73539 133.234 9.37061Z" stroke="#00303E" stroke-linecap="round" stroke-linejoin="round"/>
<path d="M125.387 16.5195V98.5195" stroke="#00303E" stroke-linecap="round" stroke-linejoin="round"/>
<path d="M177.258 44.707H73.5176" stroke="#00303E" stroke-linecap="round" stroke-linejoin="round"/>
<path d="M118.14 22.9669C122.143 26.9695 125.387 44.7122 125.387 44.7122C125.387 44.7122 107.644 41.4681 103.641 37.4706C101.718 35.548 100.637 32.94 100.637 30.2205C100.636 27.501 101.716 24.8927 103.639 22.9694C105.561 21.0461 108.169 19.9653 110.889 19.9648C113.608 19.9644 116.217 21.0442 118.14 22.9669Z" stroke="#00303E" stroke-linecap="round" stroke-linejoin="round"/>
<path d="M132.639 22.9677C128.636 26.9704 125.387 44.7131 125.387 44.7131C125.387 44.7131 143.129 41.469 147.132 37.4664C149.055 35.5444 150.135 32.9374 150.136 30.2189C150.136 27.5003 149.057 24.8929 147.135 22.9703C145.213 21.0477 142.606 19.9673 139.887 19.9668C137.169 19.9663 134.561 21.0458 132.639 22.9677Z" stroke="#00303E" stroke-linecap="round" stroke-linejoin="round"/>
<path d="M125.387 44.707L104.887 62.6445" stroke="#00303E" stroke-linecap="round" stroke-linejoin="round"/>
<path d="M125.387 44.707L145.887 62.6445" stroke="#00303E" stroke-linecap="round" stroke-linejoin="round"/>
<defs>
<linearGradient id="paint0_linear_5_12129" x1="125.387" y1="1.01562" x2="125.387" y2="98.52" gradientUnits="userSpaceOnUse">
<stop stop-color="#FFE7E7"/>
<stop offset="0.585" stop-color="#FFB4B4"/>
<stop offset="1" stop-color="#ED9292"/>
</linearGradient>
<linearGradient id="paint1_linear_5_12129" x1="118.045" y1="1" x2="118.045" y2="75.0688" gradientUnits="userSpaceOnUse">
<stop stop-color="#ED9292" stop-opacity="0.46"/>
<stop offset="1" stop-color="white"/>
</linearGradient>
</defs>
</svg>
