<svg width="331" height="60" viewBox="0 0 331 60" fill="none" xmlns="http://www.w3.org/2000/svg">
<path d="M81.08 15.22L82.1 13.6H89.48L98.48 31.18L107.48 13.6H114.86L115.88 15.22L102.8 40.36V55H94.16V40.36L81.08 15.22ZM121.893 55V13.6H150.213V21.4H130.533V29.8H148.413V37.6H130.533V47.2H150.213V55H121.893ZM157.504 44.92V23.68C157.504 16.96 160.864 13.6 167.584 13.6H181.264C187.984 13.6 191.344 16.96 191.344 23.68V44.92C191.344 51.64 187.984 55 181.264 55H167.584C160.864 55 157.504 51.64 157.504 44.92ZM166.144 45.4C166.144 46.6 166.744 47.2 167.944 47.2H180.904C182.104 47.2 182.704 46.6 182.704 45.4V23.2C182.704 22 182.104 21.4 180.904 21.4H167.944C166.744 21.4 166.144 22 166.144 23.2V45.4ZM199.984 44.92V23.68C199.984 16.96 203.344 13.6 210.064 13.6H227.404L231.424 16.72V21.4H210.424C209.224 21.4 208.624 22 208.624 23.2V45.4C208.624 46.6 209.224 47.2 210.424 47.2H223.984V37.6H216.064V29.8H232.624V55H210.064C203.344 55 199.984 51.64 199.984 44.92ZM241.248 55V13.6H249.888V55H241.248ZM255.865 15.22L256.885 13.6H264.265L273.265 31.18L282.265 13.6H289.645L290.665 15.22L277.585 40.36V55H268.945V40.36L255.865 15.22ZM289.85 53.38L302.15 13.6H315.35L327.65 53.38L326.57 55H319.37L316.85 46.6H300.65L298.13 55H290.93L289.85 53.38ZM302.99 38.8H314.51L309.23 21.4H308.27L302.99 38.8Z" fill="black"/>
<path d="M33.4658 14.4182L29.5 18.0343L25.5342 14.4078C15.7504 4.76139 1.30407 13.3847 1.00618 23.2124C0.617628 36.0139 18.6413 52.0378 29.5 59.4773C40.3587 52.0378 58.3824 36.0113 57.9938 23.2124C57.6959 13.3847 43.2496 4.76139 33.4658 14.4182Z" fill="url(#paint0_linear_5_12697)"/>
<path d="M15.1132 47.6244L50.5777 12.1573C47.8885 10.5487 44.7344 9.8967 41.6278 10.3072C38.5213 10.7178 35.6448 12.1667 33.4658 14.4187L29.5 18.0348L25.5342 14.4083C15.7505 4.76188 1.3041 13.3851 1.00621 23.2129C0.767898 31.0461 7.4225 40.0839 15.1132 47.6244Z" fill="url(#paint1_linear_5_12697)"/>
<path d="M33.4658 14.4182L29.5 18.0343L25.5342 14.4078C15.7504 4.76139 1.30407 13.3847 1.00618 23.2124C0.617628 36.0139 18.6413 52.0378 29.5 59.4773C40.3587 52.0378 58.3824 36.0113 57.9938 23.2124C57.6959 13.3847 43.2496 4.76139 33.4658 14.4182Z" stroke="#00303E" stroke-linecap="round" stroke-linejoin="round"/>
<path d="M29.5 18.0312V59.4768" stroke="#00303E" stroke-linecap="round" stroke-linejoin="round"/>
<path d="M55.718 32.2793H3.28418" stroke="#00303E" stroke-linecap="round" stroke-linejoin="round"/>
<path d="M25.8369 21.2888C27.86 23.3119 29.4997 32.2796 29.4997 32.2796C29.4997 32.2796 20.5319 30.64 18.5088 28.6195C17.5367 27.6477 16.9905 26.3296 16.9902 24.9551C16.99 23.5805 17.5358 22.2622 18.5076 21.2901C19.4793 20.318 20.7975 19.7717 22.172 19.7715C23.5465 19.7712 24.8648 20.317 25.8369 21.2888Z" stroke="#00303E" stroke-linecap="round" stroke-linejoin="round"/>
<path d="M33.1653 21.2883C31.1423 23.3113 29.5 32.2791 29.5 32.2791C29.5 32.2791 38.4678 30.6394 40.4908 28.6164C41.4626 27.6449 42.0087 26.3273 42.0089 24.9532C42.0092 23.5792 41.4636 22.2613 40.4921 21.2896C39.5207 20.3178 38.203 19.7717 36.829 19.7715C35.455 19.7712 34.1371 20.3168 33.1653 21.2883Z" stroke="#00303E" stroke-linecap="round" stroke-linejoin="round"/>
<path d="M29.5001 32.2793L19.1387 41.3455" stroke="#00303E" stroke-linecap="round" stroke-linejoin="round"/>
<path d="M29.5 32.2793L39.8614 41.3455" stroke="#00303E" stroke-linecap="round" stroke-linejoin="round"/>
<defs>
<linearGradient id="paint0_linear_5_12697" x1="29.5" y1="10.1953" x2="29.5" y2="59.4773" gradientUnits="userSpaceOnUse">
<stop stop-color="#FFE7E7"/>
<stop offset="0.585" stop-color="#FFB4B4"/>
<stop offset="1" stop-color="#ED9292"/>
</linearGradient>
<linearGradient id="paint1_linear_5_12697" x1="25.7888" y1="10.1875" x2="25.7888" y2="47.6244" gradientUnits="userSpaceOnUse">
<stop stop-color="#ED9292" stop-opacity="0.46"/>
<stop offset="1" stop-color="white"/>
</linearGradient>
</defs>
</svg>
